<svg height="100%" width="100%" id="svg" viewBox="0 0 1440 700" xmlns="http://www.w3.org/2000/svg"
  class="transition duration-300 ease-in-out delay-150">
  <path
    d="M 0,700 C 0,700 0,175 0,175 C 68.18181818181822,196.60765550239236 136.36363636363643,218.21531100478472 241,222 C 345.63636363636357,225.78468899521528 486.72727272727263,211.74641148325355 594,184 C 701.2727272727274,156.25358851674645 774.7272727272727,114.79904306220095 869,130 C 963.2727272727273,145.20095693779905 1078.3636363636365,217.0574162679426 1177,234 C 1275.6363636363635,250.9425837320574 1357.8181818181818,212.9712918660287 1440,175 C 1440,175 1440,700 1440,700 Z"
    stroke="none" stroke-width="0" class="color1 transition-all duration-300 ease-in-out delay-150">
  </path>
  <path
    d="M 0,700 C 0,700 0,350 0,350 C 97.77990430622009,337.4736842105263 195.55980861244018,324.9473684210526 278,340 C 360.4401913875598,355.0526315789474 427.54066985645943,397.6842105263158 532,395 C 636.4593301435406,392.3157894736842 778.2775119617224,344.3157894736842 896,320 C 1013.7224880382776,295.6842105263158 1107.349282296651,295.05263157894734 1194,304 C 1280.650717703349,312.94736842105266 1360.3253588516745,331.47368421052636 1440,350 C 1440,350 1440,700 1440,700 Z"
    stroke="none" stroke-width="0" class="color2 transition-all duration-300 ease-in-out delay-150">
  </path>
  <path
    d="M 0,700 C 0,700 0,525 0,525 C 83.14832535885168,527.3062200956938 166.29665071770336,529.6124401913875 279,540 C 391.70334928229664,550.3875598086125 533.9617224880383,568.8564593301437 621,575 C 708.0382775119617,581.1435406698563 739.8564593301435,574.9617224880382 817,565 C 894.1435406698565,555.0382775119618 1016.6124401913878,541.2966507177034 1128,534 C 1239.3875598086122,526.7033492822966 1339.6937799043062,525.8516746411483 1440,525 C 1440,525 1440,700 1440,700 Z"
    stroke="none" stroke-width="0" class="color3 transition-all duration-300 ease-in-out delay-150">
  </path>
</svg>