<?xml version="1.0" encoding="UTF-8" standalone="no"?>
<!DOCTYPE svg PUBLIC "-//W3C//DTD SVG 1.1//EN" "http://www.w3.org/Graphics/SVG/1.1/DTD/svg11.dtd">
<svg version="1.1" xmlns="http://www.w3.org/2000/svg" preserveAspectRatio="xMidYMid meet" viewBox="0 0 640 640" width="512" height="512"><path d="M568.13 56.8L568.76 57L569.39 57.22L570.01 57.46L570.61 57.73L571.2 58.03L571.78 58.34L572.35 58.68L572.89 59.03L573.43 59.41L573.95 59.8L574.45 60.22L574.94 60.65L575.41 61.11L575.86 61.58L576.3 62.06L576.71 62.57L577.11 63.09L577.48 63.62L577.84 64.17L578.18 64.74L578.49 65.31L578.78 65.9L579.05 66.51L579.3 67.12L579.52 67.75L579.72 68.39L579.89 69.04L580.04 69.7L580.16 70.37L580.26 71.04L580.33 71.73L580.37 72.42L580.39 73.12L580.39 200.04L579.78 199.01L578.29 196.83L576.53 194.57L574.53 192.24L572.28 189.87L569.79 187.48L567.09 185.07L564.17 182.66L561.04 180.28L557.71 177.93L554.2 175.64L550.51 173.41L546.65 171.28L542.62 169.25L538.45 167.34L534.13 165.57L529.68 163.95L525.1 162.49L520.41 161.23L515.62 160.17L510.72 159.33L505.74 158.72L500.68 158.37L495.54 158.29L490.35 158.49L485.11 159L479.82 159.82L474.49 160.98L469.15 162.5L463.78 164.38L458.41 166.64L453.05 169.31L447.69 172.4L442.35 175.92L437.05 179.89L431.78 184.33L426.56 189.25L421.4 194.68L416.3 200.62L411.27 207.1L411.15 206.49L411.03 205.86L410.91 205.2L410.8 204.52L410.68 203.82L410.56 203.1L410.45 202.35L410.34 201.58L410.22 200.79L410.11 199.98L410 199.14L409.89 198.28L409.78 197.4L409.68 196.5L409.57 195.57L409.47 194.62L409.36 193.65L409.26 192.66L409.16 191.64L409.06 190.6L408.96 189.54L408.86 188.46L408.76 187.35L408.67 186.22L408.57 185.07L408.48 183.9L408.38 182.7L408.29 181.48L408.2 180.24L408.11 178.98L408.02 177.69L407.94 176.38L407.85 175.05L407.76 173.7L407.68 172.32L407.6 170.92L407.51 169.5L407.43 168.06L407.35 166.59L407.27 165.1L406.53 165.06L405.75 165.03L404.95 164.99L404.13 164.96L403.28 164.93L402.4 164.91L401.5 164.88L400.57 164.86L399.62 164.84L398.64 164.82L397.63 164.8L396.6 164.78L395.55 164.77L394.46 164.76L393.36 164.75L392.22 164.74L391.07 164.73L389.88 164.73L388.67 164.72L387.44 164.72L386.17 164.72L384.89 164.73L383.58 164.73L382.24 164.74L380.87 164.75L379.48 164.76L378.07 164.77L376.63 164.78L375.16 164.8L373.67 164.82L372.15 164.84L370.61 164.86L369.04 164.88L367.45 164.91L365.83 164.93L364.18 164.96L362.51 164.99L360.81 165.03L359.09 165.06L357.34 165.1L357.29 166.08L357.25 167.53L357.21 169.44L357.17 171.82L357.14 174.67L357.12 177.98L357.1 181.76L357.09 186.01L357.08 190.72L357.07 195.9L357.07 201.54L357.08 207.65L357.09 214.23L357.11 221.27L357.13 228.78L357.15 236.76L357.18 245.2L357.22 254.11L357.26 263.49L357.31 273.33L357.36 283.64L357.41 294.42L357.47 305.66L357.54 317.37L357.61 329.54L357.69 342.18L357.77 355.29L357.85 368.86L357.95 382.9L358.04 397.41L358.14 412.38L358.25 427.82L358.36 443.73L358.47 460.1L358.6 476.94L358.72 494.24L358.85 512.02L358.99 530.25L359.13 548.96L359.27 568.13L85.38 568.13L84.68 568.11L83.99 568.07L83.3 568L82.62 567.91L81.96 567.78L81.3 567.64L80.65 567.46L80.01 567.26L79.38 567.04L78.77 566.79L78.16 566.52L77.57 566.23L76.99 565.92L76.43 565.58L75.88 565.23L75.34 564.85L74.82 564.45L74.32 564.04L73.83 563.6L73.36 563.15L72.91 562.68L72.48 562.19L72.06 561.69L71.67 561.17L71.29 560.64L70.93 560.09L70.6 559.52L70.28 558.94L69.99 558.35L69.72 557.75L69.48 557.13L69.25 556.51L69.05 555.87L68.88 555.22L68.73 554.56L68.61 553.89L68.51 553.21L68.44 552.53L68.4 551.84L68.39 551.14L68.39 451.81L118.65 451.81L118.65 322.81L167.65 322.81L243.65 451.81L301.65 451.81L298.62 447.08L295.63 442.42L292.67 437.8L289.75 433.24L286.87 428.73L284.03 424.28L281.22 419.87L278.45 415.53L275.72 411.23L273.03 407L270.37 402.81L267.75 398.68L265.17 394.6L262.63 390.58L260.12 386.6L257.65 382.69L255.22 378.82L252.83 375.02L250.47 371.26L248.15 367.56L245.87 363.91L243.63 360.32L241.42 356.77L239.25 353.29L237.12 349.85L235.03 346.48L232.97 343.15L230.95 339.88L228.97 336.66L227.03 333.5L225.12 330.38L223.25 327.33L221.42 324.32L219.63 321.38L217.87 318.48L216.15 315.64L214.47 312.85L212.83 310.12L211.22 307.43L209.65 304.81L212.83 302.09L215.94 299.33L219.01 296.52L222.01 293.68L224.97 290.79L227.86 287.87L230.71 284.9L233.49 281.89L236.23 278.84L238.9 275.75L241.53 272.61L244.09 269.44L246.61 266.22L249.06 262.97L251.47 259.67L253.81 256.33L256.11 252.95L258.34 249.53L260.53 246.06L262.65 242.56L264.73 239.01L266.74 235.43L268.71 231.8L270.61 228.13L272.47 224.42L274.26 220.67L276.01 216.87L277.69 213.04L279.33 209.16L280.9 205.25L282.43 201.29L283.89 197.29L285.31 193.25L286.66 189.17L287.97 185.04L289.21 180.88L290.41 176.67L291.54 172.43L292.63 168.14L293.65 163.81L292.62 163.82L291.57 163.83L290.5 163.84L289.4 163.85L288.3 163.86L287.17 163.87L286.02 163.88L284.85 163.89L283.67 163.9L282.47 163.9L281.25 163.91L280 163.91L278.75 163.92L277.47 163.92L276.17 163.93L274.85 163.93L273.52 163.93L272.17 163.93L270.8 163.93L269.4 163.93L268 163.93L266.57 163.93L265.12 163.93L263.65 163.93L262.17 163.93L260.67 163.92L259.15 163.92L257.6 163.91L256.05 163.91L254.47 163.9L252.87 163.9L251.25 163.89L249.62 163.88L247.97 163.87L246.3 163.86L244.6 163.85L242.9 163.84L241.17 163.83L239.42 163.82L237.65 163.81L236.81 167.18L235.91 170.53L234.97 173.86L233.98 177.15L232.95 180.43L231.87 183.67L230.75 186.89L229.57 190.09L228.36 193.26L227.09 196.4L225.78 199.52L224.42 202.61L223.02 205.68L221.57 208.72L220.08 211.74L218.53 214.73L216.95 217.69L215.31 220.63L213.63 223.55L211.9 226.43L210.13 229.3L208.31 232.13L206.45 234.94L204.53 237.73L202.58 240.49L200.57 243.22L198.52 245.93L196.42 248.61L194.28 251.27L192.09 253.9L189.86 256.51L187.57 259.09L185.25 261.64L182.87 264.17L180.45 266.68L177.98 269.15L175.47 271.61L172.91 274.03L170.31 276.43L167.65 278.81L118.65 278.81L118.65 56.13L563.39 56.13L564.09 56.14L564.79 56.19L565.47 56.25L566.15 56.35L566.82 56.47L567.48 56.62L567.48 56.62L568.13 56.8ZM411.15 536.69L411.14 532.4L411.12 528.16L411.11 523.96L411.1 519.82L411.09 515.72L411.08 511.68L411.08 507.68L411.07 503.73L411.07 499.83L411.06 495.99L411.06 492.19L411.06 488.44L411.06 484.74L411.06 481.08L411.06 477.48L411.06 473.93L411.07 470.43L411.07 466.97L411.08 463.57L411.08 460.22L411.09 456.91L411.1 453.65L411.11 450.45L411.12 447.29L411.14 444.18L411.15 441.13L411.16 438.12L411.18 435.16L411.2 432.25L411.21 429.39L411.23 426.57L411.25 423.81L411.27 421.1L412.07 422.41L413.14 423.88L414.47 425.47L416.06 427.18L417.91 428.98L419.99 430.86L422.31 432.8L424.86 434.78L427.62 436.79L430.6 438.81L433.78 440.82L437.16 442.81L440.73 444.75L444.48 446.63L448.41 448.43L452.5 450.13L456.75 451.73L461.16 453.19L465.7 454.5L470.39 455.65L475.2 456.62L480.13 457.38L485.18 457.93L490.33 458.24L495.58 458.3L500.93 458.09L506.35 457.6L511.85 456.8L517.42 455.67L523.05 454.21L528.73 452.39L534.46 450.2L540.23 447.62L546.02 444.62L551.84 441.2L557.67 437.34L563.52 433.01L569.36 428.21L575.19 422.91L580.39 417.72L580.39 551.14L580.37 551.84L580.33 552.53L580.26 553.21L580.16 553.89L580.04 554.56L579.89 555.22L579.72 555.87L579.52 556.51L579.3 557.13L579.05 557.75L578.78 558.35L578.49 558.94L578.18 559.52L577.84 560.09L577.48 560.64L577.11 561.17L576.71 561.69L576.3 562.19L575.86 562.68L575.41 563.15L574.94 563.6L574.45 564.04L573.95 564.45L573.43 564.85L572.89 565.23L572.35 565.58L571.78 565.92L571.2 566.23L570.61 566.52L570.01 566.79L569.39 567.04L568.76 567.26L568.13 567.46L567.48 567.64L566.82 567.78L566.15 567.91L565.47 568L564.79 568.07L564.09 568.11L563.39 568.13L411.27 568.13L411.25 563.49L411.23 558.9L411.21 554.36L411.2 549.87L411.18 545.43L411.16 541.04L411.16 541.04L411.15 536.69ZM506.94 203.02L509.45 203.53L511.84 204.09L514.13 204.71L516.32 205.39L518.4 206.13L520.4 206.93L522.3 207.8L524.13 208.73L525.87 209.72L527.54 210.78L529.14 211.91L530.67 213.1L532.15 214.37L533.57 215.71L534.93 217.12L536.26 218.61L537.54 220.17L538.78 221.81L539.99 223.53L541.17 225.32L542.33 227.2L543.47 229.16L544.6 231.2L545.72 233.32L546.84 235.54L547.96 237.83L549.08 240.22L550.21 242.69L551.35 245.26L552.52 247.92L553.71 250.67L554.93 253.51L556.18 256.45L556.71 259.64L557.21 262.74L557.67 265.76L558.1 268.7L558.5 271.58L558.87 274.38L559.21 277.13L559.52 279.81L559.8 282.44L560.04 285.02L560.26 287.55L560.44 290.04L560.59 292.5L560.72 294.92L560.81 297.31L560.87 299.68L560.9 302.02L560.9 304.36L560.88 306.68L560.82 308.99L560.73 311.3L560.61 313.61L560.47 315.93L560.29 318.25L560.09 320.59L559.85 322.95L559.59 325.33L559.3 327.74L558.98 330.18L558.63 332.66L558.25 335.17L557.85 337.73L557.41 340.34L556.95 343L556.46 345.72L555.95 348.5L555.4 351.35L554.83 354.26L554.23 357.25L553.6 360.32L552.29 363.28L551.01 366.13L549.75 368.88L548.5 371.53L547.26 374.09L546.04 376.54L544.82 378.9L543.6 381.17L542.38 383.34L541.16 385.43L539.92 387.43L538.68 389.35L537.43 391.18L536.15 392.94L534.86 394.61L533.54 396.21L532.19 397.74L530.82 399.19L529.4 400.58L527.95 401.89L526.46 403.14L524.93 404.33L523.35 405.45L521.71 406.52L520.02 407.52L518.28 408.47L516.47 409.37L514.59 410.22L512.65 411.01L510.64 411.76L508.55 412.47L506.39 413.13L504.14 413.74L501.81 414.32L499.39 414.87L496.88 415.37L494.28 415.85L491.57 416.29L488.77 416.71L485.86 417.09L483.04 416.61L480.27 416.1L477.55 415.54L474.89 414.94L472.27 414.31L469.71 413.63L467.21 412.92L464.75 412.17L462.34 411.37L459.99 410.54L457.69 409.67L455.44 408.76L453.25 407.81L451.1 406.83L449.01 405.8L446.97 404.73L444.98 403.63L443.04 402.48L441.16 401.3L439.33 400.08L437.55 398.82L435.82 397.52L434.14 396.18L432.52 394.8L430.94 393.38L429.42 391.92L427.96 390.43L426.54 388.89L425.17 387.32L423.86 385.7L422.6 384.05L421.39 382.36L420.24 380.63L419.13 378.86L418.08 377.05L417.08 375.2L416.13 373.31L415.24 371.39L414.39 369.42L413.6 367.42L411.66 253.82L413.09 251.23L414.53 248.7L416 246.24L417.49 243.84L419 241.5L420.53 239.24L422.09 237.03L423.66 234.9L425.26 232.83L426.89 230.82L428.53 228.88L430.2 227L431.89 225.19L433.6 223.44L435.33 221.76L437.08 220.15L438.86 218.6L440.66 217.11L442.48 215.69L444.33 214.34L446.19 213.05L448.08 211.83L449.99 210.67L451.92 209.58L453.88 208.55L455.85 207.59L457.85 206.69L459.87 205.86L461.92 205.09L463.98 204.39L466.07 203.75L468.18 203.18L470.31 202.68L472.47 202.24L474.64 201.86L476.84 201.55L479.06 201.31L481.31 201.13L483.57 201.01L485.86 200.97L489.28 201.11L492.56 201.3L495.69 201.54L498.7 201.84L501.57 202.18L504.31 202.57L504.31 202.57L506.94 203.02Z"></path></svg>